<svg xmlns="http://www.w3.org/2000/svg" viewBox="0 0 24 30" x="0px" y="0px"><title>Design Tools</title><g data-name="Layer 5"><path d="M22,0H20a2.0059,2.0059,0,0,0-2,2V4a2.0929,2.0929,0,0,0,.07.51L4.51,18.07A2.0929,2.0929,0,0,0,4,18H2a2.0059,2.0059,0,0,0-2,2v2a2.0059,2.0059,0,0,0,2,2H4a2.0059,2.0059,0,0,0,2-2V20a2.0929,2.0929,0,0,0-.07-.51L19.49,5.93A2.0929,2.0929,0,0,0,20,6h2a2.0059,2.0059,0,0,0,2-2V2A2.0059,2.0059,0,0,0,22,0Z"/></g><text x="0" y="39" fill="#000000" font-size="5px" font-weight="bold" font-family="'Helvetica Neue', Helvetica, Arial-Unicode, Arial, Sans-serif">Created by elastic1studio</text><text x="0" y="44" fill="#000000" font-size="5px" font-weight="bold" font-family="'Helvetica Neue', Helvetica, Arial-Unicode, Arial, Sans-serif">from the Noun Project</text></svg>