<svg class="svg-icon" style="width: 1em; height: 1em;vertical-align: middle;fill: currentColor;overflow: hidden;" viewBox="0 0 1024 1024" version="1.1" xmlns="http://www.w3.org/2000/svg"><path d="M128 640a384 213.333333 0 1 0 768 0 384 213.333333 0 1 0-768 0Z" opacity=".16" /><path d="M981.333333 469.333333c0-17.066667-10.666667-32-25.6-38.4-14.933333-6.4-34.133333-2.133333-46.933333 8.533334l-128 128c-17.066667 17.066667-17.066667 42.666667 0 59.733333 17.066667 17.066667 42.666667 17.066667 59.733333 0l34.133334-34.133333c-46.933333 138.666667-170.666667 241.066667-320 258.133333V469.333333h85.333333c23.466667 0 42.666667-19.2 42.666667-42.666666s-19.2-42.666667-42.666667-42.666667h-85.333333v-49.066667c72.533333-19.2 128-85.333333 128-164.266666 0-93.866667-76.8-170.666667-170.666667-170.666667s-170.666667 76.8-170.666667 170.666667c0 78.933333 55.466667 145.066667 128 164.266666V384h-85.333333c-23.466667 0-42.666667 19.2-42.666667 42.666667s19.2 42.666667 42.666667 42.666666h85.333333v381.866667c-149.333333-17.066667-273.066667-119.466667-320-258.133333l34.133334 34.133333c17.066667 17.066667 42.666667 17.066667 59.733333 0 17.066667-17.066667 17.066667-42.666667 0-59.733333l-128-128c-12.8-12.8-29.866667-17.066667-46.933333-8.533334-14.933333 6.4-25.6 21.333333-25.6 38.4 0 245.333333 187.733333 445.866667 426.666666 467.2V981.333333c0 23.466667 19.2 42.666667 42.666667 42.666667s42.666667-19.2 42.666667-42.666667v-44.8c238.933333-21.333333 426.666667-221.866667 426.666666-467.2zM426.666667 170.666667c0-46.933333 38.4-85.333333 85.333333-85.333334s85.333333 38.4 85.333333 85.333334-38.4 85.333333-85.333333 85.333333-85.333333-38.4-85.333333-85.333333z"  /></svg>