<?xml version="1.0" encoding="utf-8"?>
<!-- Svg Vector Icons : http://www.onlinewebfonts.com/icon -->
<!DOCTYPE svg PUBLIC "-//W3C//DTD SVG 1.1//EN" "http://www.w3.org/Graphics/SVG/1.1/DTD/svg11.dtd">
<svg version="1.1" xmlns="http://www.w3.org/2000/svg" xmlns:xlink="http://www.w3.org/1999/xlink" x="0px" y="0px" viewBox="0 0 256 256" enable-background="new 0 0 256 256" xml:space="preserve">
<metadata> Svg Vector Icons : http://www.onlinewebfonts.com/icon </metadata>
<g><g><path fill="#5973e2" d="M128,10C62.8,10,10,62.8,10,128c0,65.2,52.8,118,118,118c65.2,0,118-52.8,118-118C246,62.8,193.2,10,128,10L128,10z M128,231.3C71,231.3,24.7,185,24.7,128C24.7,71,71,24.7,128,24.7c57,0,103.3,46.2,103.3,103.3C231.3,185,185,231.3,128,231.3L128,231.3z M69,128c0-32.6,26.4-59,59-59c32.6,0,59,26.4,59,59c0,32.6-26.4,59-59,59C95.4,187,69,160.6,69,128z"/></g></g>
</svg>